<svg width="18" height="16" viewBox="0 0 18 16" fill="none" xmlns="http://www.w3.org/2000/svg">
<path d="M15.8001 2.16666C14.9167 1.281 13.7457 0.740446 12.4987 0.642637C11.2516 0.544829 10.0107 0.896217 9.00007 1.63333C7.93978 0.844693 6.62006 0.487088 5.30667 0.632527C3.99327 0.777965 2.78377 1.41564 1.92171 2.41715C1.05966 3.41866 0.609085 4.7096 0.660734 6.03001C0.712383 7.35042 1.26242 8.60222 2.20007 9.53333L7.37507 14.7167C7.80842 15.1431 8.39206 15.3822 9.00007 15.3822C9.60808 15.3822 10.1917 15.1431 10.6251 14.7167L15.8001 9.53333C16.7731 8.55438 17.3192 7.23022 17.3192 5.85C17.3192 4.46977 16.7731 3.14561 15.8001 2.16666ZM14.6251 8.38333L9.45007 13.5583C9.39118 13.6178 9.32109 13.665 9.24385 13.6972C9.16661 13.7294 9.08375 13.746 9.00007 13.746C8.91638 13.746 8.83352 13.7294 8.75628 13.6972C8.67904 13.665 8.60896 13.6178 8.55007 13.5583L3.37507 8.35833C2.72153 7.69028 2.35558 6.79288 2.35558 5.85833C2.35558 4.92377 2.72153 4.02637 3.37507 3.35833C4.04103 2.70082 4.93921 2.33214 5.87507 2.33214C6.81092 2.33214 7.7091 2.70082 8.37507 3.35833C8.45254 3.43644 8.5447 3.49843 8.64625 3.54074C8.7478 3.58305 8.85672 3.60483 8.96673 3.60483C9.07674 3.60483 9.18567 3.58305 9.28721 3.54074C9.38876 3.49843 9.48093 3.43644 9.5584 3.35833C10.2244 2.70082 11.1225 2.33214 12.0584 2.33214C12.9943 2.33214 13.8924 2.70082 14.5584 3.35833C15.2209 4.01762 15.5989 4.91015 15.6114 5.84473C15.6238 6.77931 15.2698 7.68161 14.6251 8.35833V8.38333Z" fill="white" fill-opacity="0.97"/>
</svg>
