<svg width="18" height="18" viewBox="0 0 18 18" fill="none" xmlns="http://www.w3.org/2000/svg">
<path d="M13.9999 10.6667C13.5075 10.6699 13.022 10.7822 12.5782 10.9955C12.1344 11.2087 11.7434 11.5176 11.4332 11.9L7.18321 9.94166C7.38304 9.32978 7.38304 8.6702 7.18321 8.05833L11.4332 6.09999C11.9346 6.70497 12.6335 7.11339 13.4067 7.25319C14.1798 7.39299 14.9776 7.25518 15.659 6.86408C16.3405 6.47298 16.8619 5.85372 17.1312 5.11561C17.4005 4.3775 17.4004 3.56798 17.131 2.82992C16.8615 2.09185 16.34 1.4727 15.6585 1.08172C14.977 0.690738 14.1792 0.553072 13.4061 0.693013C12.6329 0.832955 11.9341 1.24151 11.4328 1.84657C10.9316 2.45163 10.6602 3.21431 10.6665 3.99999C10.6691 4.19852 10.6886 4.39647 10.7249 4.59166L6.32488 6.61666C5.85578 6.15798 5.26175 5.84792 4.61722 5.72535C3.97269 5.60278 3.30631 5.67313 2.70159 5.9276C2.09687 6.18207 1.58068 6.60934 1.21771 7.15588C0.854746 7.70241 0.661133 8.34391 0.661133 8.99999C0.661133 9.65608 0.854746 10.2976 1.21771 10.8441C1.58068 11.3906 2.09687 11.8179 2.70159 12.0724C3.30631 12.3269 3.97269 12.3972 4.61722 12.2746C5.26175 12.1521 5.85578 11.842 6.32488 11.3833L10.7249 13.4083C10.6886 13.6035 10.6691 13.8015 10.6665 14C10.6665 14.6593 10.862 15.3037 11.2283 15.8519C11.5946 16.4001 12.1152 16.8273 12.7243 17.0796C13.3334 17.3319 14.0036 17.3979 14.6502 17.2693C15.2968 17.1407 15.8907 16.8232 16.3569 16.357C16.8231 15.8908 17.1405 15.2969 17.2692 14.6503C17.3978 14.0037 17.3318 13.3335 17.0795 12.7244C16.8272 12.1153 16.3999 11.5947 15.8518 11.2284C15.3036 10.8622 14.6592 10.6667 13.9999 10.6667ZM13.9999 2.33333C14.3295 2.33333 14.6518 2.43108 14.9258 2.61421C15.1999 2.79735 15.4135 3.05764 15.5397 3.36219C15.6658 3.66673 15.6988 4.00184 15.6345 4.32514C15.5702 4.64845 15.4115 4.94542 15.1784 5.1785C14.9453 5.41159 14.6483 5.57033 14.325 5.63464C14.0017 5.69894 13.6666 5.66594 13.3621 5.53979C13.0575 5.41365 12.7972 5.20003 12.6141 4.92594C12.431 4.65186 12.3332 4.32963 12.3332 3.99999C12.3332 3.55797 12.5088 3.13404 12.8214 2.82148C13.1339 2.50892 13.5579 2.33333 13.9999 2.33333ZM3.99988 10.6667C3.67025 10.6667 3.34801 10.5689 3.07393 10.3858C2.79985 10.2026 2.58623 9.94234 2.46008 9.6378C2.33394 9.33326 2.30093 8.99815 2.36524 8.67484C2.42955 8.35154 2.58828 8.05457 2.82137 7.82148C3.05446 7.5884 3.35143 7.42966 3.67473 7.36535C3.99803 7.30104 4.33314 7.33405 4.63769 7.46019C4.94223 7.58634 5.20253 7.79996 5.38566 8.07404C5.5688 8.34812 5.66655 8.67036 5.66655 8.99999C5.66655 9.44202 5.49095 9.86594 5.17839 10.1785C4.86583 10.4911 4.44191 10.6667 3.99988 10.6667ZM13.9999 15.6667C13.6702 15.6667 13.348 15.5689 13.0739 15.3858C12.7998 15.2026 12.5862 14.9423 12.4601 14.6378C12.3339 14.3333 12.3009 13.9981 12.3652 13.6748C12.4295 13.3515 12.5883 13.0546 12.8214 12.8215C13.0545 12.5884 13.3514 12.4297 13.6747 12.3654C13.998 12.301 14.3331 12.334 14.6377 12.4602C14.9422 12.5863 15.2025 12.8 15.3857 13.074C15.5688 13.3481 15.6665 13.6704 15.6665 14C15.6665 14.442 15.491 14.8659 15.1784 15.1785C14.8658 15.4911 14.4419 15.6667 13.9999 15.6667Z" fill="white" fill-opacity="0.97"/>
</svg>
