<svg width="8" height="13" viewBox="0 0 8 13" fill="none" xmlns="http://www.w3.org/2000/svg">
<path d="M7.21494 2.21494L2.91494 6.50494L7.21494 10.7949C7.40325 10.9832 7.50903 11.2386 7.50903 11.5049C7.50903 11.7712 7.40325 12.0266 7.21494 12.2149C7.02664 12.4032 6.77124 12.509 6.50494 12.509C6.23864 12.509 5.98325 12.4032 5.79494 12.2149L0.794943 7.21494C0.701214 7.12198 0.626818 7.01138 0.57605 6.88952C0.525281 6.76766 0.499143 6.63695 0.499143 6.50494C0.499143 6.37293 0.525281 6.24222 0.57605 6.12036C0.626818 5.99851 0.701214 5.8879 0.794943 5.79494L5.79494 0.794943C5.88818 0.701704 5.99887 0.627742 6.12069 0.577282C6.24251 0.526822 6.37308 0.500851 6.50494 0.500851C6.6368 0.500851 6.76737 0.526822 6.88919 0.577282C7.01101 0.627742 7.1217 0.701704 7.21494 0.794943C7.30818 0.888181 7.38214 0.998871 7.4326 1.12069C7.48306 1.24252 7.50903 1.37308 7.50903 1.50494C7.50903 1.6368 7.48306 1.76737 7.4326 1.88919C7.38214 2.01101 7.30818 2.1217 7.21494 2.21494Z" fill="white" fill-opacity="0.79"/>
</svg>
